<?xml version="1.0" encoding="UTF-8"?>
<svg xmlns="http://www.w3.org/2000/svg" width="1280" height="548" viewBox="0 0 1280 548" role="img" aria-labelledby="title desc">
  <title id="title">Denyel Chokey Namgyal. A souscription dial. The aperture holds 14:42, when this account began. Only the seconds move.</title>
  <desc id="desc">Personal seal for a computer science student in Bhutan. Manufacture Namgyal, calibre Until Then. The rim is enamel; the secret signature is a SHA-256 prefix of his name. One red seconds hand.</desc>
  <defs>
    <style>
      .seconds {
        transform-box: view-box;
        transform-origin: 640px 318px;
        animation: sweep 60s linear infinite;
      }
      @keyframes sweep {
        from { transform: rotate(0deg); }
        to { transform: rotate(360deg); }
      }
      @media (prefers-reduced-motion: reduce) {
        .seconds { animation: none; }
      }
    </style>
  </defs>

  <rect width="1280" height="548" fill="#12110e"/>

  <text x="640" y="32" text-anchor="middle" fill="#9a9284" font-family="Segoe UI, Helvetica, Arial, sans-serif" font-size="11" letter-spacing="5.2">BHUTAN  ·  COMPUTER SCIENCE</text>
  <text x="640" y="88" text-anchor="middle" fill="#ebe6d8" font-family="Georgia, 'Times New Roman', Times, serif" font-size="42">Denyel Chokey Namgyal</text>
  <line x1="616" y1="108" x2="664" y2="108" stroke="#ebe6d8" stroke-width="0.8" stroke-opacity="0.4"/>

  <g transform="translate(640,318)">
    <circle cx="0" cy="0" r="157" fill="none" stroke="#5a5448" stroke-width="1.05"/>
    <circle cx="0" cy="0" r="150" fill="#1a1814" stroke="#ebe6d8" stroke-width="1.2"/>

    <g fill="none">
      <circle cx="0" cy="0" r="14.0" fill="none" stroke="#ebe6d8" stroke-width="0.5" stroke-opacity="0.12"/>
      <circle cx="0" cy="0" r="17.2" fill="none" stroke="#ebe6d8" stroke-width="0.5" stroke-opacity="0.12"/>
      <circle cx="0" cy="0" r="20.4" fill="none" stroke="#ebe6d8" stroke-width="0.5" stroke-opacity="0.12"/>
      <circle cx="0" cy="0" r="23.6" fill="none" stroke="#ebe6d8" stroke-width="0.5" stroke-opacity="0.12"/>
      <circle cx="0" cy="0" r="26.8" fill="none" stroke="#ebe6d8" stroke-width="0.5" stroke-opacity="0.12"/>
      <circle cx="0" cy="0" r="30.0" fill="none" stroke="#ebe6d8" stroke-width="0.5" stroke-opacity="0.12"/>
      <circle cx="0" cy="0" r="33.2" fill="none" stroke="#ebe6d8" stroke-width="0.5" stroke-opacity="0.12"/>
      <circle cx="0" cy="0" r="36.4" fill="none" stroke="#ebe6d8" stroke-width="0.5" stroke-opacity="0.12"/>
      <circle cx="0" cy="0" r="39.6" fill="none" stroke="#ebe6d8" stroke-width="0.5" stroke-opacity="0.12"/>
      <circle cx="0" cy="0" r="42.8" fill="none" stroke="#ebe6d8" stroke-width="0.5" stroke-opacity="0.12"/>
      <circle cx="0" cy="0" r="46.0" fill="none" stroke="#ebe6d8" stroke-width="0.5" stroke-opacity="0.12"/>
      <circle cx="0" cy="0" r="49.2" fill="none" stroke="#ebe6d8" stroke-width="0.5" stroke-opacity="0.12"/>
    </g>
    <circle cx="0" cy="0" r="54" fill="none" stroke="#5a5448" stroke-width="0.6" stroke-opacity="0.7"/>

    <g>
      <line x1="0.00" y1="-132.00" x2="0.00" y2="-151.50" stroke="#ebe6d8" stroke-width="1.7" stroke-linecap="butt"/>
      <line x1="14.42" y1="-137.24" x2="15.68" y2="-149.18" stroke="#5a5448" stroke-width="0.7" stroke-linecap="butt"/>
      <line x1="28.69" y1="-134.98" x2="31.19" y2="-146.72" stroke="#5a5448" stroke-width="0.7" stroke-linecap="butt"/>
      <line x1="42.64" y1="-131.25" x2="46.35" y2="-142.66" stroke="#5a5448" stroke-width="0.7" stroke-linecap="butt"/>
      <line x1="56.13" y1="-126.07" x2="61.01" y2="-137.03" stroke="#5a5448" stroke-width="0.7" stroke-linecap="butt"/>
      <line x1="68.00" y1="-117.78" x2="75.00" y2="-129.90" stroke="#ebe6d8" stroke-width="1.25" stroke-linecap="butt"/>
      <line x1="81.11" y1="-111.64" x2="88.17" y2="-121.35" stroke="#5a5448" stroke-width="0.7" stroke-linecap="butt"/>
      <line x1="92.34" y1="-102.55" x2="100.37" y2="-111.47" stroke="#5a5448" stroke-width="0.7" stroke-linecap="butt"/>
      <line x1="102.55" y1="-92.34" x2="111.47" y2="-100.37" stroke="#5a5448" stroke-width="0.7" stroke-linecap="butt"/>
      <line x1="111.64" y1="-81.11" x2="121.35" y2="-88.17" stroke="#5a5448" stroke-width="0.7" stroke-linecap="butt"/>
      <line x1="117.78" y1="-68.00" x2="129.90" y2="-75.00" stroke="#ebe6d8" stroke-width="1.25" stroke-linecap="butt"/>
      <line x1="126.07" y1="-56.13" x2="137.03" y2="-61.01" stroke="#5a5448" stroke-width="0.7" stroke-linecap="butt"/>
      <line x1="131.25" y1="-42.64" x2="142.66" y2="-46.35" stroke="#5a5448" stroke-width="0.7" stroke-linecap="butt"/>
      <line x1="134.98" y1="-28.69" x2="146.72" y2="-31.19" stroke="#5a5448" stroke-width="0.7" stroke-linecap="butt"/>
      <line x1="137.24" y1="-14.42" x2="149.18" y2="-15.68" stroke="#5a5448" stroke-width="0.7" stroke-linecap="butt"/>
      <line x1="132.00" y1="0.00" x2="151.50" y2="0.00" stroke="#ebe6d8" stroke-width="1.7" stroke-linecap="butt"/>
      <line x1="137.24" y1="14.42" x2="149.18" y2="15.68" stroke="#5a5448" stroke-width="0.7" stroke-linecap="butt"/>
      <line x1="134.98" y1="28.69" x2="146.72" y2="31.19" stroke="#5a5448" stroke-width="0.7" stroke-linecap="butt"/>
      <line x1="131.25" y1="42.64" x2="142.66" y2="46.35" stroke="#5a5448" stroke-width="0.7" stroke-linecap="butt"/>
      <line x1="126.07" y1="56.13" x2="137.03" y2="61.01" stroke="#5a5448" stroke-width="0.7" stroke-linecap="butt"/>
      <line x1="117.78" y1="68.00" x2="129.90" y2="75.00" stroke="#ebe6d8" stroke-width="1.25" stroke-linecap="butt"/>
      <line x1="111.64" y1="81.11" x2="121.35" y2="88.17" stroke="#5a5448" stroke-width="0.7" stroke-linecap="butt"/>
      <line x1="102.55" y1="92.34" x2="111.47" y2="100.37" stroke="#5a5448" stroke-width="0.7" stroke-linecap="butt"/>
      <line x1="92.34" y1="102.55" x2="100.37" y2="111.47" stroke="#5a5448" stroke-width="0.7" stroke-linecap="butt"/>
      <line x1="81.11" y1="111.64" x2="88.17" y2="121.35" stroke="#5a5448" stroke-width="0.7" stroke-linecap="butt"/>
      <line x1="68.00" y1="117.78" x2="75.00" y2="129.90" stroke="#ebe6d8" stroke-width="1.25" stroke-linecap="butt"/>
      <line x1="56.13" y1="126.07" x2="61.01" y2="137.03" stroke="#5a5448" stroke-width="0.7" stroke-linecap="butt"/>
      <line x1="42.64" y1="131.25" x2="46.35" y2="142.66" stroke="#5a5448" stroke-width="0.7" stroke-linecap="butt"/>
      <line x1="28.69" y1="134.98" x2="31.19" y2="146.72" stroke="#5a5448" stroke-width="0.7" stroke-linecap="butt"/>
      <line x1="14.42" y1="137.24" x2="15.68" y2="149.18" stroke="#5a5448" stroke-width="0.7" stroke-linecap="butt"/>
      <line x1="0.00" y1="132.00" x2="0.00" y2="151.50" stroke="#ebe6d8" stroke-width="1.7" stroke-linecap="butt"/>
      <line x1="-14.42" y1="137.24" x2="-15.68" y2="149.18" stroke="#5a5448" stroke-width="0.7" stroke-linecap="butt"/>
      <line x1="-28.69" y1="134.98" x2="-31.19" y2="146.72" stroke="#5a5448" stroke-width="0.7" stroke-linecap="butt"/>
      <line x1="-42.64" y1="131.25" x2="-46.35" y2="142.66" stroke="#5a5448" stroke-width="0.7" stroke-linecap="butt"/>
      <line x1="-56.13" y1="126.07" x2="-61.01" y2="137.03" stroke="#5a5448" stroke-width="0.7" stroke-linecap="butt"/>
      <line x1="-68.00" y1="117.78" x2="-75.00" y2="129.90" stroke="#ebe6d8" stroke-width="1.25" stroke-linecap="butt"/>
      <line x1="-81.11" y1="111.64" x2="-88.17" y2="121.35" stroke="#5a5448" stroke-width="0.7" stroke-linecap="butt"/>
      <line x1="-92.34" y1="102.55" x2="-100.37" y2="111.47" stroke="#5a5448" stroke-width="0.7" stroke-linecap="butt"/>
      <line x1="-102.55" y1="92.34" x2="-111.47" y2="100.37" stroke="#5a5448" stroke-width="0.7" stroke-linecap="butt"/>
      <line x1="-111.64" y1="81.11" x2="-121.35" y2="88.17" stroke="#5a5448" stroke-width="0.7" stroke-linecap="butt"/>
      <line x1="-117.78" y1="68.00" x2="-129.90" y2="75.00" stroke="#ebe6d8" stroke-width="1.25" stroke-linecap="butt"/>
      <line x1="-126.07" y1="56.13" x2="-137.03" y2="61.01" stroke="#5a5448" stroke-width="0.7" stroke-linecap="butt"/>
      <line x1="-131.25" y1="42.64" x2="-142.66" y2="46.35" stroke="#5a5448" stroke-width="0.7" stroke-linecap="butt"/>
      <line x1="-134.98" y1="28.69" x2="-146.72" y2="31.19" stroke="#5a5448" stroke-width="0.7" stroke-linecap="butt"/>
      <line x1="-137.24" y1="14.42" x2="-149.18" y2="15.68" stroke="#5a5448" stroke-width="0.7" stroke-linecap="butt"/>
      <line x1="-132.00" y1="0.00" x2="-151.50" y2="0.00" stroke="#ebe6d8" stroke-width="1.7" stroke-linecap="butt"/>
      <line x1="-137.24" y1="-14.42" x2="-149.18" y2="-15.68" stroke="#5a5448" stroke-width="0.7" stroke-linecap="butt"/>
      <line x1="-134.98" y1="-28.69" x2="-146.72" y2="-31.19" stroke="#5a5448" stroke-width="0.7" stroke-linecap="butt"/>
      <line x1="-131.25" y1="-42.64" x2="-142.66" y2="-46.35" stroke="#5a5448" stroke-width="0.7" stroke-linecap="butt"/>
      <line x1="-126.07" y1="-56.13" x2="-137.03" y2="-61.01" stroke="#5a5448" stroke-width="0.7" stroke-linecap="butt"/>
      <line x1="-117.78" y1="-68.00" x2="-129.90" y2="-75.00" stroke="#ebe6d8" stroke-width="1.25" stroke-linecap="butt"/>
      <line x1="-111.64" y1="-81.11" x2="-121.35" y2="-88.17" stroke="#5a5448" stroke-width="0.7" stroke-linecap="butt"/>
      <line x1="-102.55" y1="-92.34" x2="-111.47" y2="-100.37" stroke="#5a5448" stroke-width="0.7" stroke-linecap="butt"/>
      <line x1="-92.34" y1="-102.55" x2="-100.37" y2="-111.47" stroke="#5a5448" stroke-width="0.7" stroke-linecap="butt"/>
      <line x1="-81.11" y1="-111.64" x2="-88.17" y2="-121.35" stroke="#5a5448" stroke-width="0.7" stroke-linecap="butt"/>
      <line x1="-68.00" y1="-117.78" x2="-75.00" y2="-129.90" stroke="#ebe6d8" stroke-width="1.25" stroke-linecap="butt"/>
      <line x1="-56.13" y1="-126.07" x2="-61.01" y2="-137.03" stroke="#5a5448" stroke-width="0.7" stroke-linecap="butt"/>
      <line x1="-42.64" y1="-131.25" x2="-46.35" y2="-142.66" stroke="#5a5448" stroke-width="0.7" stroke-linecap="butt"/>
      <line x1="-28.69" y1="-134.98" x2="-31.19" y2="-146.72" stroke="#5a5448" stroke-width="0.7" stroke-linecap="butt"/>
      <line x1="-14.42" y1="-137.24" x2="-15.68" y2="-149.18" stroke="#5a5448" stroke-width="0.7" stroke-linecap="butt"/>
    </g>
    <circle cx="0" cy="0" r="138" fill="none" stroke="#ebe6d8" stroke-width="0.7"/>
    <circle cx="0" cy="0" r="150" fill="none" stroke="#ebe6d8" stroke-width="0.9"/>

    <g fill="none" stroke="#ebe6d8" stroke-width="1.35" stroke-linejoin="round" stroke-linecap="round" transform="translate(0,-114)">
      <path d="M -4.1,-3.1 C -4.1,-9.6 4.1,-9.6 4.1,-3.1"/>
      <rect x="-6.1" y="-3.1" width="12.2" height="10" rx="1.5"/>
      <circle cx="0" cy="1.7" r="1.1" fill="#ebe6d8" stroke="none"/>
    </g>

    <text x="0" y="-86" text-anchor="middle" fill="#ebe6d8" font-family="Segoe UI, Helvetica, Arial, sans-serif" font-size="11" letter-spacing="3.8">NAMGYAL</text>
    <text x="0" y="66" text-anchor="middle" fill="#9a9284" font-family="Segoe UI, Helvetica, Arial, sans-serif" font-size="11" letter-spacing="0.8">68f1 031b 0119 05e7</text>
    <text x="0" y="102" text-anchor="middle" fill="#ebe6d8" font-family="Segoe UI, Helvetica, Arial, sans-serif" font-size="9" letter-spacing="3.2">UNTIL THEN</text>

    <g>
      <rect x="66" y="-11" width="44" height="22" rx="1.8" fill="#0c0b09" stroke="#ebe6d8" stroke-width="1.05"/>
      <rect x="68.5" y="-8.5" width="39" height="17" rx="1.1" fill="none" stroke="#5a5448" stroke-width="0.5"/>
      <text x="88" y="5.5" text-anchor="middle" fill="#ebe6d8" font-family="Georgia, 'Times New Roman', Times, serif" font-size="12" letter-spacing="1.15">14:42</text>
    </g>
  </g>

  <g class="seconds">
    <animateTransform attributeName="transform" type="rotate" from="0 640 318" to="360 640 318" dur="60s" repeatCount="indefinite"/>
    <line x1="640" y1="346" x2="640" y2="177" stroke="#d24f34" stroke-width="0.95" stroke-linecap="round"/>
    <circle cx="640" cy="342" r="2.35" fill="#d24f34"/>
  </g>
  <circle cx="640" cy="318" r="4.6" fill="#ebe6d8"/>
  <circle cx="640" cy="318" r="2" fill="#d24f34"/>

  <text x="640" y="494" text-anchor="middle" fill="#9a9284" font-family="Georgia, 'Times New Roman', Times, serif" font-size="16" font-style="italic">Sealed until it should open.</text>
  <g>
    <rect x="560.0" y="514.0" width="32" height="2.5" fill="#6a7e90"/>
    <rect x="592.0" y="514.0" width="32" height="2.5" fill="#d4cec2"/>
    <rect x="624.0" y="514.0" width="32" height="2.5" fill="#a0564c"/>
    <rect x="656.0" y="514.0" width="32" height="2.5" fill="#8aa88c"/>
    <rect x="688.0" y="514.0" width="32" height="2.5" fill="#b89a5c"/>
  </g>
</svg>
